<svg width="240" height="241" viewBox="0 0 240 241" fill="none" xmlns="http://www.w3.org/2000/svg">
<g clip-path="url(#clip0_1892_15480)">
<g clip-path="url(#clip1_1892_15480)">
<path d="M117.785 226.756C116.332 226.447 40.1996 206.548 45.8439 144.043C51.4843 81.5382 62.769 44.8822 100.856 27.495C138.944 10.1079 188.787 11.9857 211.357 72.6089C233.926 133.232 179.381 160.02 176.559 172.241C173.737 184.459 182.204 240.383 117.781 226.756H117.785Z" fill="#FEEFD6"/>
<path d="M120.043 240.028C156.997 240.028 186.955 237.153 186.955 233.606C186.955 230.06 156.997 227.185 120.043 227.185C83.0883 227.185 53.1309 230.06 53.1309 233.606C53.1309 237.153 83.0883 240.028 120.043 240.028Z" fill="#D3D4E2"/>
<path d="M165.696 222.069C165.696 222.069 171.375 226.783 175.841 216.127C178.732 209.222 177.913 198.11 175.268 195.463C172.62 192.816 168.344 168.609 167.328 164.328C166.311 160.047 165.901 144.986 166.717 135.419C167.533 125.853 170.382 124.021 168.549 117.507C166.717 110.992 154.296 110.791 151.443 108.96C148.593 107.128 149.301 102.16 146.556 98.9874C143.815 95.8191 134.653 93.9877 124.153 97.156C114.032 100.212 111.48 113.032 107.023 113.643C102.565 114.253 95.7884 117.306 92.7613 120.157C89.7343 123.005 76.7022 141.733 75.2756 151.3C73.8491 160.866 90.9598 157.401 95.0306 155.979C99.1015 154.557 135.963 181.851 135.963 181.851L165.696 222.073V222.069Z" fill="#ABBBCC"/>
<path d="M165.696 222.069C165.696 222.069 171.375 226.783 175.841 216.127C178.732 209.222 177.913 198.11 175.268 195.463C172.62 192.816 168.344 168.609 167.328 164.328C166.311 160.047 165.901 144.986 166.717 135.419C167.533 125.853 170.382 124.021 168.549 117.507C166.717 110.992 154.296 110.791 151.443 108.96C148.593 107.128 149.301 102.16 146.556 98.9874C143.815 95.8191 134.653 93.9877 124.153 97.156C114.032 100.212 111.48 113.032 107.023 113.643C102.565 114.253 95.7884 117.306 92.7613 120.157C89.7343 123.005 76.7022 141.733 75.2756 151.3C73.8491 160.866 90.9598 157.401 95.0306 155.979C99.1015 154.557 135.963 181.851 135.963 181.851L165.696 222.073V222.069Z" fill="#B2D4FB"/>
<path d="M151.443 108.956C151.277 108.851 149.962 107.364 149.819 107.24C143.932 108.639 138.805 114.84 138.512 115.068C138.338 115.204 134.978 118.09 135.113 118.264C135.191 118.364 137.959 116.367 138.079 116.367C138.164 116.367 138.929 115.752 138.999 115.694C139.072 115.636 146.019 110.3 151.946 109.219C151.756 109.134 151.586 109.048 151.443 108.956Z" fill="#99C6F9"/>
<path d="M129.259 115.381C129.259 115.381 138.302 106.719 140.416 101.85C142.531 96.9857 131.072 97.1982 125.142 98.8596C119.208 100.525 118.566 111.49 119.552 115.47C120.538 119.45 129.259 115.381 129.259 115.381Z" fill="url(#paint0_linear_1892_15480)"/>
<path d="M166.717 135.416C166.868 133.623 167.092 132.101 167.347 130.771C164.908 134.628 156.592 143.406 153.6 146.231C153.6 146.231 160.427 144.446 162.128 142.865C163.639 141.463 163.81 142.931 166.384 141.32C166.454 139.229 166.566 137.224 166.721 135.416H166.717Z" fill="url(#paint1_linear_1892_15480)"/>
<path d="M170.518 199.146C170.518 199.146 174.086 209.841 173.985 213.766C173.885 217.692 171.028 220.686 169.006 221.1C166.984 221.513 170.514 199.146 170.514 199.146H170.518Z" fill="#4C9BF5"/>
<path d="M125.015 87.152C126.291 88.6744 131.541 90.757 131.15 101.023C132.159 105.436 129.337 109.176 127.868 109.079C125.703 108.936 102.322 118.546 102.322 118.546C102.322 118.546 96.577 116.25 93.5964 108.666C90.6158 101.077 92.9933 97.4027 94.4353 96.6879C95.8773 95.9731 93.3992 94.7444 101.862 88.798C107.224 85.0308 113.506 83.381 113.506 83.381C113.506 83.381 111.619 78.7792 112.269 76.1015C112.918 73.4201 117.929 68.8917 121.029 71.9904C124.13 75.0892 123.658 74.3744 126.816 75.209C129.975 76.0436 130.81 80.0967 128.425 82.7203C127.802 83.4041 127.184 83.976 126.615 84.459C126.615 84.459 125.115 85.5949 125.011 87.1482L125.015 87.152Z" fill="#493333"/>
<path d="M126.159 106.031C126.159 106.031 129.39 111.232 131.54 113.141C129.383 115.679 125.443 118.357 125.443 118.357L126.159 106.031Z" fill="#EDBFA8"/>
<path d="M127.736 113.762C127.43 111.223 127.013 108.635 126.147 106.212L125.443 118.356C125.443 118.356 126.622 117.552 128.045 116.409C127.96 115.524 127.844 114.643 127.736 113.758V113.762Z" fill="#D8A588"/>
<path d="M123.074 98.3841C123.074 98.3841 124.335 94.0025 126.801 95.6446C129.268 97.2868 129.952 104.821 127.485 106.054C125.019 107.286 128.796 116.61 124.551 120.273C120.306 123.935 109.849 130.55 101.355 117.127C92.8619 103.708 96.9907 104.296 99.8283 105.285C102.38 106.174 102.848 103.426 104.63 102.797C106.273 102.217 106.992 101.815 109.458 103.322C111.925 104.829 114.67 107.139 117.975 105.996C120.163 105.238 121.106 104.698 122.085 103.933C122.954 103.252 123.449 102.194 123.387 101.089C123.314 99.7635 123.074 98.3841 123.074 98.3841Z" fill="#EDBFA8"/>
<path d="M104.082 187.406C104.082 187.406 104.716 175.799 103.835 170.9C102.957 166.001 110.26 152.964 112.03 147.856C113.805 142.748 113.596 127.108 119.542 122.205C125.488 117.305 135.087 115.74 143.955 129.086C152.824 142.432 168.755 194.377 172.556 205.23C176.356 216.087 165.087 226.195 160.61 229.147C156.129 232.099 135.914 230.584 134.136 230.086C131.584 229.371 130.042 229.317 128.704 229.951C126.764 230.87 117.841 230.063 112.529 227.347C107.213 224.634 104.082 187.402 104.082 187.402V187.406Z" fill="#ED1A60"/>
<path d="M117.23 144.986C116.589 149.309 110.071 177.932 108.064 184.675C106.533 189.833 103.835 188.369 97.7537 185.475C90.5939 182.067 82.4136 175.328 82.6069 172.129C82.8079 168.934 84.8453 153.737 88.7189 141.933C92.5849 130.129 97.2511 119.226 107.024 120.651C109.653 121.034 111.659 121.81 113.187 122.749C112.661 122.896 112.143 123.074 111.621 123.267C111.42 123.344 111.524 123.661 111.721 123.584C112.328 123.352 112.939 123.151 113.562 122.989C117.373 125.527 117.98 129.074 118.127 129.507C118.127 129.507 118.444 136.775 117.23 144.986Z" fill="#ED1A60"/>
<path d="M127.822 199.427C128.344 199.11 128.92 198.863 129.264 198.411C130.165 197.228 130.888 195.864 131.638 194.582C137.282 184.918 141.419 174.409 143.901 163.497C144.071 162.748 144.454 162.979 145.053 163.814C145.996 165.29 146.162 165.587 146.707 165.912L148.184 166.523C146.147 172.268 143.236 177.681 139.544 182.534C139.374 182.758 138.867 183.535 138.349 184.049C137.213 186.715 136.528 188.059 135.187 190.629C133.787 193.31 132.299 195.965 130.648 198.499C129.995 199.504 129.075 200.613 127.76 200.617C126.67 200.617 125.596 199.871 125.58 198.72C125.58 198.72 126.894 199.983 127.822 199.423V199.427Z" fill="#CC1754"/>
<path d="M86.6839 170.522C86.6839 170.522 84.5885 169.842 83.9081 170.831C83.2277 171.82 85.0215 174.598 87.8011 176.762C90.5846 178.926 87.9751 171.387 86.6839 170.522Z" fill="#CC1754"/>
<path d="M103.382 181.147C103.382 181.147 105.558 183.86 105.512 185.633C105.466 187.407 102.156 185.633 102.156 185.633L103.382 181.147Z" fill="#CC1754"/>
<path d="M86.987 213.491L86.6816 170.521C86.6816 170.521 89.036 170.985 93.0527 173.361C98.1364 176.371 103.379 181.147 103.379 181.147L99.6094 211.08L100.174 217.015C100.174 217.015 100.576 217.799 100.816 219.132C101.055 220.469 98.6236 222.13 97.5063 222.065C96.3852 221.995 86.9832 213.487 86.9832 213.487L86.987 213.491Z" fill="#ED9B86"/>
<path d="M98.2619 219.005C98.2619 219.005 95.3857 213.735 90.2942 212C85.2028 210.265 79.4502 217.448 75.3755 219.005C71.3008 220.562 65.4903 222.718 64.6514 224.395C63.8125 226.072 63.5728 230.681 64.2339 231.759C64.8911 232.837 90.8355 232.154 90.8355 232.154C90.8355 232.154 104.923 232.656 105.159 232.239C105.398 231.821 101.861 218.224 101.022 216.729C100.183 215.234 100.183 216.671 100.183 216.671C100.183 216.671 100.199 219.387 99.7658 219.666C98.9269 220.203 98.2697 219.009 98.2697 219.009L98.2619 219.005Z" fill="#4F5289"/>
<path d="M101.019 216.729C100.18 215.234 100.18 216.671 100.18 216.671C100.18 216.671 100.196 219.388 99.7587 219.666C98.9198 220.203 98.2626 219.009 98.2626 219.009C98.2626 219.009 96.7472 216.239 93.9753 214.052C92.3516 216.13 90.7511 218.225 89.166 220.334C86.1854 224.306 83.2821 228.329 80.3633 232.347C85.9457 232.289 90.8284 232.161 90.8284 232.161C90.8284 232.161 104.916 232.664 105.152 232.246C105.391 231.829 101.854 218.232 101.015 216.737L101.019 216.729Z" fill="#23276C"/>
<path d="M90.8294 232.158C90.8294 232.158 104.917 232.66 105.153 232.243C105.261 232.053 104.592 229.148 103.749 225.891C99.5356 226.092 98.7276 226.613 97.2701 226.806C95.7431 227.011 89.7586 227.212 85.7651 227.517C82.189 227.792 67.0732 227.575 63.9379 227.525C63.7678 229.283 63.8413 231.126 64.2278 231.76C64.8851 232.838 90.8294 232.154 90.8294 232.154V232.158Z" fill="white"/>
<path d="M103.748 225.891C99.5345 226.092 98.7265 226.613 97.269 226.806C95.742 227.011 89.7575 227.212 85.764 227.517C85.2923 227.552 84.6197 227.579 83.8039 227.602C82.6558 229.183 81.5076 230.763 80.3594 232.343C85.9418 232.285 90.8245 232.158 90.8245 232.158C90.8245 232.158 104.912 232.66 105.148 232.243C105.256 232.053 104.587 229.148 103.745 225.891H103.748Z" fill="#F1EFFF"/>
<path d="M122.878 182.615C122.878 182.615 126.257 187.936 127.838 194.346C128.634 197.564 127.374 198.399 124.567 194.083C121.76 189.767 122.878 182.615 122.878 182.615Z" fill="#CC1754"/>
<path d="M102.156 217.521C102.156 217.111 112.525 172.901 112.525 172.901C112.525 172.901 116.147 174.327 121.308 180.474C126.469 186.626 125.112 191.819 124.567 194.141C124.022 196.463 118.791 211.08 118.791 211.08L118.772 216.354C118.772 216.354 119.101 219.143 118.637 220.77C118.177 222.397 102.156 217.521 102.156 217.521Z" fill="#EDBFA8"/>
<path d="M86.987 213.491L86.6816 170.521C86.6816 170.521 89.036 170.985 93.0527 173.361C98.1364 176.371 103.379 181.147 103.379 181.147L99.6094 211.08L100.174 217.015C100.174 217.015 100.576 217.799 100.816 219.132C101.055 220.469 98.6236 222.13 97.5063 222.065C96.3852 221.995 86.9832 213.487 86.9832 213.487L86.987 213.491Z" fill="#EDBFA8"/>
<path d="M88.7231 228.405C88.7231 228.405 88.5105 231.608 89.4731 232.037C90.4357 232.466 120.258 232.146 121.433 232.037C122.608 231.929 122.396 227.123 122.075 225.307C121.754 223.491 121.541 217.293 119.295 215.477C119.295 215.477 118.758 215.048 118.758 216.366C118.758 217.683 118.7 218.522 118.039 218.162C117.381 217.803 112.286 211.996 107.794 211.038C103.302 210.079 99.7642 211.76 97.4292 215.411C95.0942 219.063 94.1934 221.157 91.9164 222.776C89.6393 224.391 88.7463 227.443 88.727 228.405H88.7231Z" fill="#4F5289"/>
<path d="M121.429 232.038C122.5 231.941 122.419 227.946 122.152 225.859C120.254 226.172 120.06 226.86 117.675 227.2C115.22 227.552 88.9512 227.2 88.9512 227.2C88.8004 227.71 88.727 228.139 88.7231 228.406C88.7231 228.406 88.5105 231.609 89.4731 232.038C90.4357 232.466 120.258 232.146 121.433 232.038H121.429Z" fill="white"/>
<path d="M112.526 172.898C112.526 172.898 109.012 170.722 107.345 171.453C105.675 172.183 111.088 179.037 111.088 179.037L112.526 172.902V172.898Z" fill="#CC1754"/>
<path d="M152.416 147.373C152.416 147.373 142.755 160.869 139.357 164.324C135.959 167.778 120.901 159.984 119.173 159.405C117.441 158.825 111.959 157.539 111.429 158.783C110.896 160.031 110.517 163.485 109.775 165.61C109.036 167.735 107.022 169.462 107.022 169.462C107.022 169.462 108.236 161.12 107.838 158.914C105.186 157.57 86.4863 149.865 86.4863 149.865L135.228 148.996L152.416 147.365V147.373Z" fill="#CC1754"/>
<path d="M86.7076 128.835C86.7076 128.835 82.9228 137.165 82.6252 140.206C82.6252 140.206 81.3687 143.189 78.9525 144.843C76.5363 146.493 77.0466 146.748 77.1742 149.796C77.3017 152.845 76.285 152.084 75.5234 152.339C74.7618 152.594 74.1239 147.636 73.9964 144.082C73.8688 140.523 75.2683 134.936 77.0466 132.649C78.8249 130.361 86.7076 128.839 86.7076 128.839V128.835Z" fill="#EDBFA8"/>
<path d="M81.3343 147.864C81.3343 147.864 78.8021 146.156 79.5095 140.33C80.217 134.503 83.2247 129.24 84.0482 128.487C84.8716 127.733 86.5185 127.44 88.3432 127.44C90.1679 127.44 104.688 128.711 104.688 128.711C104.688 128.711 108.674 125.21 118.134 123.19C127.594 121.173 144.133 121.095 147.496 121.555C150.859 122.015 154.868 121.88 156.276 122.139C160.47 122.908 158.417 130.044 158.213 130.102C158.008 130.16 156.276 140.38 156.276 140.38C156.276 140.38 155.626 143.676 152.329 146.794C149.031 149.912 137.522 160.251 130.803 161.063C124.084 161.878 109.772 155.433 103.757 154.347C97.7413 153.262 87.3187 149.947 85.5675 149.626C83.8162 149.305 81.3304 147.864 81.3304 147.864H81.3343Z" fill="#B2D4FB"/>
<path d="M106.328 128.221C108.632 128.55 110.92 128.959 113.19 129.465C117.492 130.424 121.718 131.741 125.781 133.449C125.87 133.383 131.348 133.414 133.9 133.824L132.891 134.566C132.883 134.689 132.477 134.952 132.357 135.06C131.796 135.574 131.236 136.092 130.675 136.606C130.47 136.795 130.196 136.826 129.949 136.699C126.902 135.122 123.732 133.801 120.477 132.715C114.686 130.787 108.663 129.593 102.593 128.959C96.5197 128.326 92.4256 128.009 86.3252 128.268C86.3252 128.268 85.8187 127.657 87.079 127.549C88.3393 127.441 93.6241 127.112 104.19 127.943L106.328 128.221Z" fill="#99C6F9"/>
<path d="M149.641 124.887C149.641 124.887 152.184 122.982 154.345 122.599C156.507 122.217 158.08 126.9 155.985 129.06C153.885 131.219 149.644 124.887 149.644 124.887H149.641Z" fill="url(#paint2_linear_1892_15480)"/>
<path d="M143.285 136.447C143.285 136.447 145.802 137.108 147.225 137.591C148.647 138.074 152.181 142.672 153.325 143.688C154.469 144.704 154.976 143.178 154.976 143.178C154.976 143.178 155.61 144.638 156.375 144.036C157.137 143.433 157.392 141.779 158.026 141.146C158.66 140.512 159.677 139.619 159.677 136.826C159.677 136.826 159.294 130.219 159.043 128.948C158.788 127.676 150.909 125.261 149.637 124.883C149.637 124.883 145.57 126.409 143.281 136.443L143.285 136.447Z" fill="#EDBFA8"/>
<path d="M156.831 128.688C156.282 128.371 155.636 128.251 155.014 128.418C154.712 128.499 154.45 128.657 154.183 128.819C153.858 129.016 153.607 129.047 153.232 129.005C151.925 128.862 150.839 129.457 150.216 130.624C150.085 130.867 149.996 131.18 149.768 131.354C149.555 131.512 149.238 131.551 148.983 131.597C148.419 131.706 147.885 131.825 147.402 132.158C146.478 132.799 145.917 133.9 145.991 135.029C146.041 135.794 147.24 135.797 147.185 135.029C147.127 134.148 147.611 133.263 148.461 132.934C148.906 132.764 149.401 132.768 149.853 132.617C150.325 132.463 150.711 132.181 150.97 131.76C151.241 131.327 151.384 130.867 151.786 130.523C152.2 130.172 152.617 130.125 153.135 130.187C153.727 130.257 154.202 130.199 154.716 129.89C155.223 129.584 155.663 129.395 156.22 129.72C156.889 130.106 157.492 129.074 156.823 128.688H156.831Z" fill="#D8A588"/>
<path d="M44.3124 86.9088C30.0354 85.6222 23.2275 79.6217 20.1889 76.3529C16.5046 72.3925 9.64256 58.3089 20.8693 45.0135C32.096 31.7143 58.9527 32.3943 71.3392 43.4873C83.7257 54.5803 82.4036 67.0141 79.1523 73.7603C74.6253 83.1532 61.2491 88.4351 44.3163 86.9088H44.3124Z" fill="#ED1A60"/>
<path d="M190.514 99.6011C177.123 98.3955 170.732 92.7621 167.883 89.6981C164.427 85.985 157.99 72.7708 168.521 60.2945C179.056 47.8183 204.246 48.4558 215.867 58.8649C227.488 69.274 226.247 80.9389 223.197 87.2678C218.952 96.0773 206.4 101.035 190.514 99.6011Z" fill="#23276C"/>
<path d="M208.781 72.9019C208.928 72.5194 209.048 72.1253 209.133 71.7234C209.349 70.7111 209.322 69.6872 209.059 68.7213C209.067 68.5822 209.063 68.4431 209.051 68.304C208.932 67.0985 208.027 66.1789 207.088 65.4872C205.646 64.1001 203.74 63.2965 201.76 62.8328C201.586 62.7555 201.408 62.686 201.231 62.6203C199.738 62.0678 198.146 61.8746 196.58 62.0137C194.817 61.3066 192.969 60.8043 191.102 60.5879C189.486 60.3986 187.816 60.4411 186.246 60.9048C184.735 61.353 183.362 62.2107 182.361 63.4394C181.8 64.1272 181.364 64.8845 181.031 65.6882C180.146 66.1943 179.311 66.7894 178.584 67.508C177.436 68.644 176.589 70.1045 176.291 71.7003C176.144 72.4846 176.133 73.2844 176.284 74.0688C176.446 74.8956 176.817 75.6568 177.3 76.3446C178.251 77.7008 179.438 78.9294 180.66 80.0422C180.88 80.2431 181.101 80.4363 181.329 80.6295C181.371 81.9239 181.545 83.2337 181.97 84.4547C182.485 85.9384 183.416 87.2946 184.858 88.0055C185.45 88.2992 186.072 88.4769 186.714 88.5697C186.869 89.1183 187.108 89.6399 187.514 90.0456C187.87 90.4011 188.326 90.6407 188.805 90.6948C189.142 90.915 189.517 91.0811 189.942 91.1623C191.496 91.4598 193.22 90.8686 194.543 90.0727C195.687 89.3849 196.669 88.4383 197.45 87.3564C199.348 87.4839 201.262 87.3526 203.082 86.8039C204.207 86.4639 205.282 85.9539 206.225 85.2545C206.442 85.1579 206.639 85.0265 206.805 84.8488C206.871 84.7793 206.929 84.702 206.979 84.6247C207.006 84.6015 207.033 84.5783 207.06 84.5513C208.193 83.4578 208.978 82.0514 209.399 80.5407C210.115 77.9867 209.798 75.3168 208.781 72.9135V72.9019ZM208.758 70.2243C208.769 70.9004 208.653 71.5612 208.46 72.1987C208.321 71.9166 208.174 71.6384 208.019 71.368C208.019 71.2984 208.019 71.2289 208.019 71.1632C208.305 70.8039 208.56 70.402 208.75 69.977C208.754 70.0581 208.758 70.1431 208.761 70.2243H208.758ZM204.03 81.7732C203.945 81.7732 203.859 81.7732 203.774 81.7771C202.82 81.8234 201.861 82.036 200.933 82.318C202.363 81.155 203.709 79.8838 204.946 78.516C205.066 79.6404 204.656 80.7686 204.03 81.7732ZM206.562 84.2654C206.361 84.4508 206.156 84.6247 205.939 84.787C205.387 85.015 204.725 84.9029 204.161 84.7947C203.608 84.6865 203.063 84.5397 202.53 84.362C202.901 84.0181 203.256 83.6549 203.581 83.2762C203.844 82.971 204.091 82.6464 204.323 82.3064C204.637 82.3219 204.95 82.3682 205.251 82.4571C205.781 82.6155 206.334 82.913 206.593 83.4231C206.743 83.7206 206.713 84.0142 206.57 84.2654H206.562ZM188.987 90.1693C188.875 90.092 188.767 90.007 188.662 89.9104C188.28 89.5472 187.99 89.1029 187.762 88.6276C188.516 88.6276 189.277 88.5156 190.008 88.3301C190.336 88.2451 190.665 88.1485 190.986 88.0403C191.137 88.1755 191.287 88.3108 191.438 88.4422C191.318 88.5774 191.195 88.7088 191.067 88.8401C190.773 89.1376 190.46 89.4197 190.131 89.6747C189.814 89.922 189.447 90.1616 189.03 90.1693C189.014 90.1693 188.999 90.1693 188.983 90.1693H188.987ZM182.036 77.3762C182.806 78.9372 183.772 80.4054 184.847 81.7616C185.284 82.3141 185.736 82.8474 186.204 83.369C186.065 83.2917 185.925 83.2106 185.786 83.1294C184.398 82.3219 183.084 81.3984 181.858 80.3668C181.835 79.3661 181.893 78.3653 182.04 77.3723L182.036 77.3762ZM207.018 66.175C207.698 66.913 208.232 67.7901 208.522 68.7483C208.479 69.3163 208.251 69.8727 207.938 70.3634C207.807 69.6447 207.509 68.9879 207.072 68.4237C206.635 67.0173 205.82 65.7964 204.768 64.8034C205.201 64.9772 205.622 65.1781 206.028 65.4177C206.245 65.5452 206.469 65.6882 206.689 65.8427C206.801 65.9509 206.914 66.063 207.022 66.1789L207.018 66.175ZM187.541 88.1021C187.132 87.0087 186.938 85.8264 186.826 84.6518C186.826 84.5358 186.826 84.4238 186.83 84.3079C186.985 84.389 187.143 84.4663 187.298 84.5436C188.334 85.61 189.42 86.63 190.526 87.6269C189.555 87.9321 188.55 88.1292 187.534 88.0983L187.541 88.1021ZM193 63.536C193.24 63.5012 193.483 63.4781 193.731 63.4703C194.809 63.4433 195.923 63.7215 196.816 64.332C196.576 64.4208 196.336 64.5136 196.101 64.614C193.715 65.6418 191.643 67.3342 189.954 69.2931C189.911 69.3433 189.865 69.3974 189.822 69.4477C189.714 69.5056 189.606 69.5674 189.501 69.6293C188.856 70.0195 188.257 70.5218 187.777 71.113C188.036 69.6795 188.4 68.2499 189.146 66.9903C189.876 65.7577 190.932 64.7415 192.153 63.9958C192.428 63.8297 192.71 63.679 192.996 63.536H193ZM199.762 64.162C199.854 64.2161 199.951 64.2701 200.044 64.3281C200.929 64.8613 201.795 65.4486 202.619 66.0939C201.385 65.835 200.055 65.8002 198.915 66.3798C198.892 66.3064 198.869 66.2291 198.841 66.1557C198.613 65.5375 198.277 65.0004 197.852 64.5445C198.354 64.3977 198.869 64.2856 199.387 64.2083C199.51 64.189 199.638 64.1736 199.765 64.162H199.762ZM206.16 67.5467C205.468 67.0328 204.664 66.6734 203.836 66.4107C202.847 65.5568 201.791 64.7879 200.697 64.104C200.697 64.104 200.689 64.1001 200.686 64.0963C201.613 64.0731 202.545 64.1658 203.446 64.3822C204.594 65.2052 205.553 66.2755 206.16 67.5428V67.5467ZM202.305 75.197C202.943 75.4868 203.531 75.9002 203.995 76.4257C203.191 76.8546 202.332 77.1598 201.451 77.3839C201.814 76.6807 202.039 75.9041 202.112 75.1159C202.178 75.1429 202.244 75.17 202.309 75.2009L202.305 75.197ZM200.682 77.6467C200.546 77.8514 200.771 78.0794 200.979 78.0369C202.112 77.7974 203.272 77.4148 204.32 76.8507C204.428 77.0091 204.528 77.1753 204.609 77.3491C204.633 77.3994 204.652 77.4496 204.675 77.4998C204.675 77.4998 204.671 77.5076 204.667 77.5114C203.357 79.3815 201.54 81.0005 199.41 81.8428C199.487 80.502 199.286 79.1536 198.756 77.9133C198.571 77.4805 198.343 77.0671 198.076 76.6884C198.277 76.0625 198.455 75.4288 198.61 74.7874C199.595 74.6483 200.628 74.6638 201.586 74.942C201.521 75.9002 201.207 76.843 200.674 77.6505L200.682 77.6467ZM189.501 85.5172C190.592 85.9423 191.705 86.3016 192.838 86.5875C192.795 86.6532 192.753 86.7189 192.71 86.7846C192.61 86.8271 192.513 86.8734 192.412 86.916C191.357 86.6493 190.356 86.1857 189.501 85.5172ZM190.139 69.8804C191.303 69.2661 192.625 68.9685 193.936 68.899C194.976 68.8449 196.077 68.8951 197.113 69.1463C197.113 69.2197 197.117 69.2931 197.125 69.3704C197.218 70.4329 197.802 71.4221 198.582 72.1407C198.486 72.871 198.354 73.5935 198.188 74.3122C197.948 74.3547 197.709 74.4011 197.473 74.459C197.013 74.5672 196.557 74.6947 196.108 74.8493C195.992 74.7836 195.88 74.7179 195.76 74.6599C194.496 74.0301 193 73.7983 191.628 74.177C190.062 74.6097 188.949 75.8423 188.179 77.2178C188.141 77.2873 188.106 77.3569 188.071 77.4264C187.646 76.5687 187.34 75.6375 187.247 74.6986C187.514 73.9915 187.843 73.3037 188.218 72.6469C188.771 71.6732 189.42 70.7459 190.147 69.8804H190.139ZM198.764 69.1811C198.416 69.011 198.049 68.8681 197.674 68.756C197.774 68.1533 198.107 67.6162 198.59 67.2182C198.718 67.8635 198.756 68.5319 198.76 69.1811H198.764ZM198.764 69.7761C198.756 70.3479 198.718 70.9159 198.664 71.48C198.173 70.9584 197.821 70.317 197.686 69.5752C197.67 69.4824 197.658 69.3936 197.655 69.3008C198.041 69.4245 198.412 69.5829 198.764 69.7761ZM195.992 80.6102C195.899 80.5368 195.803 80.4672 195.71 80.3938C195.223 79.9997 194.751 79.5631 194.419 79.0299C194.102 78.5199 193.909 77.894 194.001 77.2873C194.086 76.7194 194.442 76.2711 194.914 75.9659C195.265 75.7379 195.652 75.5718 196.046 75.4327C196.603 75.792 197.094 76.2441 197.5 76.7773C197.144 77.8669 196.727 78.941 196.271 79.9881C196.182 80.1968 196.085 80.4054 195.988 80.6102H195.992ZM198.679 83.1256C197.809 83.4888 196.959 83.9099 196.147 84.389C195.354 84.8527 194.593 85.3743 193.866 85.9384C194.438 84.9725 194.96 83.9717 195.459 82.9633C195.764 82.9865 196.07 82.9942 196.375 82.9865C196.97 82.971 197.554 82.8976 198.119 82.7739C198.304 82.8937 198.49 83.0096 198.675 83.1256H198.679ZM188.454 84.5011C187.851 83.7901 187.383 82.971 187.054 82.0939C187.251 80.927 187.572 79.7834 188.04 78.7015C188.059 78.6551 188.083 78.6088 188.102 78.5624C188.929 79.8684 190.062 80.9811 191.407 81.7462C192.474 82.3567 193.669 82.7469 194.89 82.9092C194.573 83.5351 194.249 84.1533 193.912 84.7677C193.665 85.2197 193.406 85.6718 193.135 86.1161C191.531 85.7182 189.961 85.1772 188.45 84.5011H188.454ZM197.005 82.4223C196.572 82.461 196.143 82.4687 195.714 82.4494C195.768 82.3412 195.818 82.233 195.872 82.1248C195.985 81.8969 196.093 81.665 196.201 81.4371C196.591 81.7269 196.982 82.0166 197.384 82.291C197.423 82.318 197.457 82.3412 197.496 82.3644C197.334 82.3876 197.171 82.4107 197.005 82.4262V82.4223ZM195.149 82.403C192.59 82.1094 190.22 80.7416 188.74 78.5701C188.612 78.3808 188.488 78.1876 188.372 77.9867C188.96 76.7928 189.76 75.6452 190.947 75.0154C192.13 74.3895 193.549 74.4049 194.794 74.8299C195.018 74.9072 195.238 74.9961 195.447 75.1004C195.447 75.1004 195.447 75.1004 195.443 75.1004C194.89 75.3322 194.345 75.6336 193.963 76.105C193.104 77.1753 193.429 78.6474 194.214 79.6597C194.631 80.2006 195.153 80.6373 195.691 81.0507C195.714 81.07 195.741 81.0893 195.768 81.1086C195.567 81.5414 195.362 81.9741 195.149 82.403ZM196.68 75.2279C197.133 75.0888 197.589 74.969 198.053 74.8763C197.945 75.3129 197.821 75.7457 197.689 76.1746C197.388 75.8229 197.052 75.5061 196.68 75.2279ZM187.027 76.2596C187.22 76.87 187.479 77.4612 187.777 78.006C187.321 78.9681 186.973 79.9804 186.729 81.0198C186.718 80.9734 186.706 80.9232 186.695 80.8768C186.722 79.3352 186.845 77.7935 187.027 76.2596ZM186.915 83.1062C186.996 83.2685 187.077 83.4308 187.166 83.5853C187.193 83.6317 187.22 83.6742 187.247 83.7206C187.128 83.5931 187.012 83.4656 186.892 83.3381C186.9 83.2608 186.903 83.1796 186.911 83.1024L186.915 83.1062ZM196.82 84.6131C196.483 84.8218 196.147 85.0227 195.807 85.2197C196.139 85.0072 196.476 84.8063 196.82 84.6131ZM198.231 82.2137C197.898 81.9973 197.566 81.7694 197.241 81.5414C196.966 81.3443 196.692 81.1473 196.421 80.9464C196.959 79.764 197.45 78.5547 197.871 77.3221C197.894 77.3607 197.921 77.4032 197.945 77.4419C198.737 78.8329 199.008 80.4441 198.876 82.0321C198.664 82.1016 198.451 82.1635 198.231 82.2137ZM201.606 74.3895C200.678 74.1422 199.704 74.119 198.749 74.2311C198.872 73.6669 198.977 73.099 199.062 72.5271C199.789 73.0526 200.631 73.3849 201.513 73.5394C201.567 73.8215 201.598 74.1036 201.606 74.3895ZM199.143 71.9244C199.162 71.7775 199.182 71.6268 199.193 71.48C199.24 71.0241 199.271 70.5643 199.286 70.1045C200.268 70.8 201.014 71.8239 201.37 72.9753C200.566 72.7937 199.781 72.4382 199.139 71.9282L199.143 71.9244ZM201.93 72.9869C201.532 71.5457 200.57 70.2629 199.298 69.4747C199.298 69.2197 199.294 68.9685 199.282 68.7135C199.255 68.1108 199.197 67.4964 199.062 66.9014C200.202 66.2755 201.567 66.3798 202.792 66.6734C203.055 66.7353 203.318 66.8048 203.581 66.8859C204.841 67.9833 205.974 69.2197 206.91 70.5952C206.925 70.9198 206.917 71.2443 206.898 71.5689C205.618 72.6855 203.863 73.2265 202.174 73.099C202.1 73.0951 202.027 73.0874 201.954 73.0758C201.946 73.0487 201.942 73.0178 201.93 72.9908V72.9869ZM206.798 69.5288C206.222 68.7715 205.584 68.0567 204.903 67.3882C205.305 67.5814 205.684 67.8171 206.024 68.0992C206.237 68.2769 206.43 68.4701 206.6 68.6749C206.682 68.957 206.747 69.2429 206.798 69.5288ZM197.57 64.9888C197.999 65.4757 198.277 66.0436 198.459 66.658C197.79 67.1332 197.311 67.8287 197.164 68.6208C196.131 68.3774 195.041 68.3194 194.005 68.3697C192.985 68.416 191.952 68.5938 190.986 68.9376C191.608 68.2847 192.273 67.678 192.977 67.1216C194.272 66.0977 195.733 65.2554 197.303 64.7222C197.396 64.8072 197.485 64.8961 197.57 64.9927V64.9888ZM188.697 70.9043C188.257 71.5264 187.858 72.1755 187.503 72.8478C187.522 72.728 187.541 72.6121 187.557 72.4923C187.82 71.8973 188.214 71.3602 188.697 70.9043ZM190.147 86.5566C190.622 86.8309 191.129 87.055 191.651 87.2328C191.473 87.3023 191.295 87.3719 191.113 87.4337C190.789 87.1439 190.468 86.8503 190.147 86.5566ZM195.018 86.2436C196.201 85.6177 197.349 84.9261 198.455 84.1726C198.246 84.8372 197.972 85.4747 197.639 86.0698C197.5 86.3132 197.353 86.5527 197.195 86.7846C196.336 86.715 195.486 86.5953 194.647 86.4368C194.771 86.3712 194.894 86.3093 195.018 86.2436ZM199.448 82.8164C199.402 82.8358 199.352 82.8512 199.305 82.8705C199.329 82.716 199.352 82.5614 199.371 82.4069C199.854 82.2291 200.322 82.0166 200.774 81.7694C200.651 81.8698 200.531 81.9741 200.407 82.0746C200.094 82.3257 199.773 82.573 199.448 82.8164ZM204.791 76.5764C205.062 76.4102 205.325 76.2286 205.576 76.0316C205.406 76.3562 205.22 76.673 205.027 76.9821C204.957 76.843 204.88 76.7078 204.791 76.5803V76.5764ZM204.466 76.1514C203.852 75.425 203.036 74.8802 202.139 74.5518C202.139 74.2349 202.116 73.922 202.066 73.609C203.032 73.694 204.018 73.5742 204.93 73.269C205.603 73.0449 206.245 72.7164 206.817 72.2953C206.697 73.1221 206.473 73.9413 206.164 74.7295C205.68 75.2897 205.097 75.765 204.463 76.1514H204.466ZM207.412 71.8084C207.412 71.8084 207.447 71.7775 207.463 71.7621C207.435 72.0094 207.389 72.2567 207.327 72.5001C207.362 72.2721 207.393 72.0403 207.412 71.8123V71.8084ZM202.24 63.6365C201.463 63.5515 200.678 63.5476 199.905 63.6249C199.441 63.3544 198.965 63.0994 198.478 62.856C199.479 62.9371 200.504 63.0685 201.505 63.2887C201.756 63.3931 202 63.5128 202.24 63.6365ZM196.997 62.7633C197.689 63.0569 198.366 63.3853 199.027 63.7408C198.482 63.8335 197.941 63.961 197.411 64.1272C196.866 63.679 196.22 63.3467 195.509 63.1496C195.153 63.053 194.798 62.9912 194.446 62.9603C194.709 62.8792 194.972 62.8058 195.238 62.7439C195.826 62.7324 196.41 62.7401 196.997 62.7633ZM192.838 63.026C190.491 63.4162 188.342 65.0236 186.71 66.6966C184.472 68.9956 182.852 71.8857 182.001 74.9768C181.943 75.1854 181.889 75.3979 181.839 75.6104C181.441 74.5865 181.132 73.5317 180.938 72.446C180.563 70.3479 180.66 68.0567 181.445 66.0475C181.626 65.947 181.812 65.8466 182.001 65.7539C183.528 64.985 185.168 64.4324 186.815 63.9765C188.918 63.3931 191.075 63.0105 193.247 62.8405C193.108 62.8985 192.973 62.9603 192.834 63.026H192.838ZM185.867 68.4585C186.834 67.2376 187.963 66.1171 189.231 65.2052C189.776 64.8111 190.363 64.4556 190.982 64.1658C190.251 64.7299 189.602 65.3984 189.068 66.1518C188.044 67.6046 187.572 69.3395 187.263 71.0666C187.19 71.4839 187.12 71.9012 187.05 72.3185C186.876 72.728 186.757 73.1608 186.71 73.6206C186.679 73.9529 186.679 74.2929 186.706 74.6329C186.497 75.2009 186.324 75.7804 186.196 76.3755C185.875 77.8669 185.852 79.4356 186.173 80.927C186.161 81.4641 186.165 82.0012 186.18 82.5383C185.883 82.1944 185.589 81.8428 185.303 81.4834C184.081 79.9495 183.007 78.2649 182.202 76.4682C182.778 73.5665 184.031 70.7884 185.871 68.4663L185.867 68.4585ZM191.566 87.8355C191.751 87.766 191.937 87.6964 192.119 87.623C192.01 87.7621 191.902 87.9012 191.79 88.0365C191.717 87.9708 191.639 87.9012 191.566 87.8355ZM193.885 86.8232C194.45 86.943 195.018 87.0473 195.594 87.1323C194.848 87.2096 194.082 87.198 193.332 87.0898C193.518 87.001 193.704 86.9121 193.889 86.8232H193.885ZM199.139 83.6935C199.216 83.6356 199.298 83.5815 199.375 83.5235C199.905 83.821 200.446 84.0954 201.003 84.3388C201.165 84.4083 201.331 84.4779 201.497 84.5474C200.434 85.4091 199.236 86.1161 197.952 86.5837C198.482 85.695 198.888 84.7136 199.139 83.6974V83.6935ZM200.546 83.5428C200.33 83.4347 200.117 83.3265 199.905 83.2106C201.03 82.8087 202.216 82.4494 203.407 82.3296C203.492 82.3219 203.577 82.3142 203.662 82.3103C203.299 82.8087 202.889 83.2647 202.487 83.6626C202.313 83.8326 202.135 83.9949 201.954 84.1572C201.474 83.9756 201.003 83.7708 200.546 83.5428ZM206.635 75.0038C206.859 74.7334 207.064 74.4397 207.242 74.1267C207.563 73.5626 207.795 72.9405 207.919 72.2953C208.019 72.4962 208.116 72.6971 208.209 72.9019C207.923 73.6013 207.548 74.2658 207.142 74.8956C206.732 75.5254 206.28 76.1321 205.804 76.7194C206.121 76.1668 206.403 75.595 206.639 75L206.635 75.0038ZM182.639 63.9263C183.559 62.7401 184.831 61.89 186.262 61.4457C187.742 60.982 189.324 60.9241 190.858 61.0786C192.428 61.2409 193.97 61.6428 195.455 62.1644C195.37 62.1798 195.285 62.1991 195.2 62.2146C192.803 62.2571 190.406 62.5662 188.071 63.1071C186.285 63.5244 184.514 64.0692 182.825 64.7879C182.477 64.9347 182.133 65.097 181.793 65.267C182.032 64.7956 182.311 64.3474 182.635 63.9224L182.639 63.9263ZM178.607 77.1289C178.058 76.4837 177.521 75.8114 177.161 75.0386C176.844 74.3586 176.701 73.6051 176.709 72.8555C176.721 71.3409 177.324 69.8379 178.255 68.6517C178.94 67.7785 179.806 67.0637 180.741 66.4687C180.15 68.331 180.076 70.3711 180.382 72.2876C180.614 73.7558 181.054 75.17 181.65 76.5223C181.452 77.5733 181.34 78.6397 181.329 79.7061C181.329 79.7679 181.329 79.8336 181.329 79.8993C180.358 79.0415 179.45 78.1142 178.611 77.1289H178.607ZM184.568 87.2057C183.961 86.8 183.47 86.2398 183.099 85.6177C182.326 84.3272 182.021 82.801 181.905 81.3173C181.897 81.2361 181.893 81.155 181.889 81.0739C182.744 81.7655 183.633 82.4107 184.561 82.998C185.113 83.3497 185.678 83.6819 186.254 83.9949C186.269 84.1804 186.285 84.3697 186.304 84.5552C186.285 85.6177 186.362 86.6841 186.536 87.7351C186.552 87.8201 186.567 87.9089 186.583 87.994C185.867 87.8664 185.171 87.6076 184.568 87.2019V87.2057ZM194.809 89.2497C193.622 90.0843 192.15 90.7025 190.68 90.687C190.356 90.687 190.039 90.6329 189.741 90.5363C190.124 90.3702 190.456 90.1036 190.773 89.837C191.102 89.5588 191.415 89.2613 191.705 88.9445C191.751 88.8942 191.798 88.8401 191.844 88.7899C192.072 88.9908 192.304 89.1956 192.532 89.3965C192.787 89.6206 193.162 89.2497 192.907 89.0217C192.668 88.8092 192.428 88.6006 192.192 88.3881C192.42 88.1137 192.633 87.8317 192.838 87.538C192.957 87.5612 193.077 87.5844 193.197 87.5998C194.369 87.7737 195.544 87.7196 196.68 87.4801C196.139 88.1485 195.517 88.7513 194.813 89.2458L194.809 89.2497ZM198.698 86.8503C199.36 86.5721 199.997 86.2398 200.6 85.8495C201.107 85.5211 201.598 85.1618 202.066 84.7677C202.997 85.1116 203.979 85.3743 204.95 85.4322C204.478 85.695 203.983 85.9191 203.477 86.1007C201.946 86.6455 200.326 86.858 198.698 86.8503ZM209.036 79.7949C208.734 81.1898 208.127 82.5228 207.196 83.6085C207.173 83.4733 207.134 83.3419 207.076 83.2106C206.651 82.2987 205.622 81.9084 204.637 81.8003C204.996 81.1782 205.271 80.5098 205.402 79.8027C205.514 79.1999 205.51 78.5933 205.39 78.0099C205.847 77.4844 206.291 76.9512 206.713 76.4025C207.381 75.5293 208.019 74.5943 208.491 73.5897C209.233 75.5602 209.492 77.6892 209.036 79.7911V79.7949Z" fill="white"/>
<path d="M105.109 115.257C104.916 115.288 104.78 115.412 104.645 115.532C104.351 115.791 104.081 115.992 103.655 116.053C103.203 116.119 102.666 116.073 102.337 116.409C102.028 116.726 102.136 116.973 102.395 117.139C102.395 117.17 102.418 117.205 102.465 117.22C103.481 117.587 104.548 117.425 105.225 116.722C105.457 116.482 105.743 116.104 105.716 115.733C105.693 115.424 105.422 115.215 105.105 115.257H105.109Z" fill="#412524"/>
<path d="M114.311 110.099C114.087 110.146 113.936 110.304 113.789 110.455C113.46 110.779 113.159 111.034 112.664 111.135C112.138 111.247 111.508 111.231 111.145 111.645C110.804 112.035 110.955 112.321 111.272 112.495C111.276 112.534 111.303 112.572 111.357 112.584C112.575 112.939 113.812 112.673 114.554 111.799C114.806 111.502 115.119 111.038 115.057 110.609C115.007 110.242 114.674 110.022 114.307 110.099H114.311Z" fill="#412524"/>
<path d="M113.564 122.985C112.945 123.147 112.331 123.344 111.724 123.58C111.523 123.657 111.422 123.336 111.623 123.263C112.141 123.066 112.659 122.892 113.189 122.745C113.32 122.826 113.444 122.907 113.568 122.989L113.564 122.985Z" fill="#ED1A60"/>
<path d="M115.928 122.54C115.12 122.629 114.336 122.78 113.562 122.985C113.439 122.904 113.315 122.822 113.184 122.741C114.073 122.486 114.977 122.305 115.909 122.2C116.122 122.177 116.141 122.509 115.932 122.537L115.928 122.54Z" fill="#9C4B35"/>
<path d="M107.93 117.923C107.729 116.729 107.574 115.504 107.559 114.291C107.559 114.044 107.945 113.877 108.065 114.136C108.676 115.477 108.707 116.941 109.012 118.363C109.082 118.684 109.136 119.171 109.298 119.445C109.673 120.079 109.994 119.859 110.647 119.596C111.301 119.333 111.691 118.947 112.395 118.916C112.592 118.908 112.72 119.124 112.635 119.294C112.155 120.237 109.739 121.543 108.773 120.608C108.162 120.021 108.065 118.699 107.934 117.919L107.93 117.923Z" fill="#D8A588"/>
<path d="M114.31 106.533C114.159 106.487 113.969 106.483 113.784 106.49C112.732 106.521 111.553 106.745 110.467 107.329C109.779 107.7 109.145 108.233 108.754 108.801C108.391 109.33 108.089 110.231 109.087 109.976C109.423 109.891 109.752 109.694 110.065 109.504C111.236 108.809 112.439 108.167 113.668 107.599C114.027 107.433 114.453 107.205 114.545 106.919C114.603 106.745 114.503 106.61 114.348 106.548C114.337 106.545 114.321 106.537 114.31 106.533Z" fill="#493333"/>
<path d="M104.031 112.811C103.602 113.259 102.995 113.592 102.438 113.936C101.843 114.303 100.896 115.052 100.331 115.462C100.076 115.122 99.8905 114.747 99.6934 114.395C99.8519 114.218 100.351 113.719 100.536 113.549C101.054 113.086 101.626 112.637 102.272 112.297C102.802 112.019 103.567 111.714 104.027 111.768C104.553 111.822 104.441 112.375 104.027 112.811H104.031Z" fill="#493333"/>
<path d="M61.1031 55.001V66.8127H55.6328V55.001H61.1031Z" fill="white"/>
<path d="M61.4656 70.0004C63.1279 70.0004 64.4771 68.6519 64.4771 66.9905V54.7306C64.4771 53.0692 63.1279 51.7207 61.4656 51.7207H34.7016C33.0431 51.7207 31.69 53.0692 31.69 54.7306V57.2807H29.6836V64.3013H31.69V66.9905C31.69 68.6519 33.0392 70.0004 34.7016 70.0004H61.4656ZM61.4656 67.9951H34.7016C34.1488 67.9951 33.7003 67.5469 33.7003 66.9905V54.7306C33.7003 54.1781 34.1526 53.7299 34.7016 53.7299H61.4656C62.0184 53.7299 62.4707 54.182 62.4707 54.7306V66.9905C62.4707 67.5469 62.0184 67.9951 61.4656 67.9951Z" fill="white"/>
<path d="M122.857 46.7633C108.105 45.8824 101.173 40.6044 98.0881 37.7181C94.3498 34.2214 87.5225 21.664 99.4026 9.46208C111.283 -2.73984 139.071 -2.65097 151.678 7.10516C164.285 16.8613 162.673 28.0934 159.174 34.2368C154.307 42.7875 140.355 47.8104 122.853 46.7633H122.857Z" fill="#FCB131"/>
<path d="M108.959 22.2282C108.588 20.5629 109.372 19.4231 110.567 18.4687C112.543 16.8923 114.808 16.757 117.282 17.1666C117.282 16.8343 117.309 16.4943 117.278 16.162C117.073 14.0987 118.5 12.928 120.008 12.3755C122.173 11.5795 124.832 12.588 126.042 14.3499C126.765 15.4047 127.26 16.5445 127.531 17.7809C127.631 18.2369 127.589 18.7237 127.616 19.2724C127.914 19.1796 128.196 19.0985 128.474 19.0096C129.611 18.6348 130.759 18.6426 131.834 19.1294C132.901 19.6124 133.473 20.559 133.647 21.6988C133.755 22.4059 133.778 23.1323 133.782 23.8471C133.79 24.786 133.593 25.6129 132.935 26.405C132.502 26.9227 132.127 27.027 131.555 27.0232C125.826 27.0116 120.101 27.0232 114.371 27.0077C112.867 27.0039 111.363 26.9343 109.86 26.8841C108.936 26.8532 108.008 26.8107 107.084 26.7604C106.593 26.7334 106.098 26.6986 105.611 26.6368C104.892 26.5441 104.389 25.6631 104.71 24.9058C105.232 23.681 106.09 22.7614 107.44 22.4446C107.915 22.3325 108.41 22.3093 108.955 22.2359L108.959 22.2282Z" fill="#A7A9C4"/>
<path d="M124.441 20.6325C124.623 19.2879 124.929 18.009 125.601 16.8537C126.85 14.7054 128.725 13.4845 131.187 13.1135C132.579 12.9049 133.94 12.9551 135.278 13.3802C136.399 13.7356 137.504 14.1529 138.432 14.9025C139.337 15.6328 139.905 16.5523 139.87 17.7733C139.851 18.4302 139.87 19.087 139.87 19.8095C140.137 19.8095 140.365 19.8443 140.574 19.8018C141.838 19.5507 143.079 19.74 144.305 20.0105C146.531 20.505 148.31 21.7183 149.624 23.5729C150.401 24.6702 150.861 25.9221 150.881 27.2628C150.892 28.1515 150.347 29.4304 149.129 29.7627C148.198 30.0139 147.254 30.0718 146.323 30.0795C139.542 30.1143 132.761 30.0989 125.976 30.1182C123.417 30.1259 120.858 30.2071 118.298 30.2148C116.563 30.2186 115.078 29.6082 113.818 28.3602C112.77 27.3208 112.275 26.0998 112.202 24.6741C112.144 23.5111 112.646 22.549 113.381 21.7067C114.904 19.9641 116.837 19.1334 119.157 19.0638C121.001 19.0097 122.667 19.427 124.159 20.5205C124.237 20.5784 124.341 20.5978 124.445 20.6403L124.441 20.6325Z" fill="#D2D9F4"/>
<path d="M115.91 29.5923C116.014 24.9364 120.781 23.7773 123.217 26.2965C123.453 25.7401 123.65 25.1567 123.936 24.6196C124.983 22.6413 126.592 21.5363 128.888 21.544C129.452 21.544 129.99 21.5788 130.496 21.8724C131.498 22.452 131.733 23.6536 131.559 24.6196C131.513 24.8785 131.494 25.1412 131.451 25.5199C131.753 25.5199 131.989 25.5199 132.224 25.5199C133.574 25.5044 134.641 26.0801 135.479 27.1001C136.025 27.7609 136.067 28.1009 135.766 28.9664C136.933 29.0514 137.942 29.5073 138.831 30.2453C139.539 30.8326 140.088 31.501 140.041 32.4863C140.003 33.317 139.342 33.8618 138.518 33.9661C134.772 34.4375 131.014 34.1284 127.264 34.1864C123.522 34.2443 119.78 34.2366 116.042 34.1748C114.785 34.1555 113.486 34.0589 112.357 33.3711C111.569 32.892 111.031 32.2236 111 31.2306C110.977 30.5583 111.12 30.1951 111.982 29.855C113.161 29.3914 114.387 29.3721 115.624 29.5923C115.701 29.6078 115.786 29.5923 115.91 29.5923Z" fill="#FFF7EA"/>
</g>
</g>
<defs>
<linearGradient id="paint0_linear_1892_15480" x1="119.633" y1="109.539" x2="152.054" y2="99.6378" gradientUnits="userSpaceOnUse">
<stop offset="0.09" stop-color="#66A9F7"/>
<stop offset="0.1" stop-color="#67A9F7"/>
<stop offset="0.5" stop-color="#8FC0F9"/>
<stop offset="0.81" stop-color="#A8CEFA"/>
<stop offset="1" stop-color="#B2D4FB"/>
</linearGradient>
<linearGradient id="paint1_linear_1892_15480" x1="152.672" y1="137.058" x2="170.621" y2="140.384" gradientUnits="userSpaceOnUse">
<stop offset="0.07" stop-color="#66A9F7"/>
<stop offset="0.08" stop-color="#67A9F7"/>
<stop offset="0.49" stop-color="#8FC0F9"/>
<stop offset="0.81" stop-color="#A8CEFA"/>
<stop offset="1" stop-color="#B2D4FB"/>
</linearGradient>
<linearGradient id="paint2_linear_1892_15480" x1="149.641" y1="126.042" x2="163.26" y2="126.042" gradientUnits="userSpaceOnUse">
<stop stop-color="#80B7F8"/>
<stop offset="1" stop-color="#CCE2FC"/>
</linearGradient>
<clipPath id="clip0_1892_15480">
<rect width="240" height="240.001" fill="white" transform="translate(0 0.0273438)"/>
</clipPath>
<clipPath id="clip1_1892_15480">
<rect width="240" height="240" fill="white" transform="translate(0 0.0273438)"/>
</clipPath>
</defs>
</svg>
